#!OML:ASF F:\VICON\USERDATA\INSTALL\rory3\rory3.ASF
:FULLY-SPECIFIED
:DEGREES
75
root -1.0266 17.4679 5.13694 -34.0731 -83.5068 53.0655
lowerback -11.0672 1.44889 5.79013
upperback -13.2089 0.751745 -0.611009
thorax -7.80577 -0.529621 -3.80244
lowerneck -5.97467 18.0265 11.5201
upperneck 12.6173 22.7462 2.61477
head 5.76713 11.7751 0.856176
rclavicle 2.26615e-014 6.36111e-015
rhumerus 8.21344 -26.9863 26.7328
rradius 114.517
rwrist -61.6354
rhand -5.45759 -53.4991
rfingers 7.12502
rthumb 20.3537 -82.4525
lclavicle 2.26615e-014 6.36111e-015
lhumerus 33.0536 37.4545 -5.94205
lradius 29.2381
lwrist 37.5894
lhand -24.2613 -24.718
lfingers 7.12502
lthumb 2.22497 5.25016
rfemur -8.08092 11.9837 -11.8729
rtibia 17.1415
rfoot -20.5503 -24.5435
rtoes 43.3776
lfemur -10.1338 4.6817 -35.9456
ltibia 1.59028e-014
lfoot -9.63169 6.7293
ltoes 20.6718
76
root -1.02066 17.467 5.13823 -34.1799 -83.4692 53.1314
lowerback -11.006 1.43974 5.83414
upperback -13.1865 0.744495 -0.611968
thorax -7.81574 -0.535294 -3.82904
lowerneck -5.92195 18.0117 11.2931
upperneck 12.5145 22.7442 2.728
head 5.68617 11.7715 0.896034
rclavicle 8.34896e-015 5.56597e-015
rhumerus 8.23632 -27.0962 26.7117
rradius 114.508
rwrist -61.514
rhand -4.90101 -53.8815
rfingers 7.12502
rthumb 20.8885 -82.7769
lclavicle 8.34896e-015 5.56597e-015
lhumerus 33.058 37.5338 -5.84127
lradius 29.2269
lwrist 37.4041
lhand -24.0796 -23.2905
lfingers 7.12502
lthumb 2.40044 6.67576
rfemur -8.04696 11.8905 -11.8658
rtibia 17.1144
rfoot -19.5259 -25.249
rtoes 42.1502
lfemur -10.0926 4.66452 -35.9803
ltibia -2.70347e-014
lfoot -9.6727 6.72372
ltoes 20.7505
77
root -1.01566 17.4692 5.13852 -33.7936 -83.486 52.7165
lowerback -10.9397 1.41335 5.8829
upperback -13.1852 0.71529 -0.552678
thorax -7.85529 -0.551535 -3.79448
lowerneck -5.87181 18.0241 10.9943
upperneck 12.469 22.768 2.97007
head 5.60166 11.7869 0.983823
rclavicle -1.11319e-014 -3.97569e-015
rhumerus 8.34343 -27.1155 26.6195
rradius 114.722
rwrist -61.5537
rhand -6.02192 -54.7193
rfingers 7.12502
rthumb 19.8113 -83.7296
lclavicle -1.11319e-014 -3.97569e-015
lhumerus 32.9267 37.4365 -5.81572
lradius 29.1661
lwrist 37.0763
lhand -24.2105 -22.292
lfingers 7.12502
lthumb 2.27403 7.67558
rfemur -7.97469 11.8876 -11.8034
rtibia 16.9973
rfoot -19.6087 -25.2574
rtoes 42.3093
lfemur -10.0655 4.66084 -35.9247
ltibia 4.13472e-014
lfoot -9.71732 6.67798
ltoes 20.9581
78
root -1.01283 17.4741 5.14145 -31.9718 -83.6639 50.8502
lowerback -10.8814 1.69651 6.11195
upperback -13.0929 1.08505 -0.824289
thorax -7.73932 -0.388252 -4.1993
lowerneck -6.38156 17.8027 11.5481
upperneck 12.5714 22.3293 2.93959
head 5.76805 11.5894 0.935605
rclavicle 9.34288e-015 1.66979e-014
rhumerus 7.22222 -26.7837 27.2295
rradius 115.071
rwrist -61.71
rhand -9.23282 -55.4924
rfingers 7.12502
rthumb 16.7223 -84.7921
lclavicle 9.34288e-015 1.66979e-014
lhumerus 34.288 37.6259 -4.78103
lradius 28.9405
lwrist 36.675
lhand -24.2724 -21.7911
lfingers 7.12502
lthumb 2.2143 8.17713
rfemur -7.92504 12.0253 -11.492
rtibia 16.9021
rfoot -19.9258 -25.1893
rtoes 42.7182
lfemur -10.0473 4.70946 -35.63
ltibia 1.27222e-014
lfoot -9.72011 6.69308
ltoes 21.1559
79
root -1.00852 17.4779 5.14373 -30.0475 -83.8041 48.8957
lowerback -10.842 1.71893 6.38106
upperback -13.0751 1.11073 -0.709573
thorax -7.74095 -0.391046 -4.22638
lowerneck -6.31015 17.8101 11.381
upperneck 12.5009 22.3724 2.93498
head 5.71697 11.6032 0.943176
rclavicle -4.96962e-015 2.06736e-014
rhumerus 7.41303 -26.7214 27.301
rradius 115.034
rwrist -61.7338
rhand -8.11737 -52.1991
rfingers 7.12502
rthumb 17.7959 -81.4048
lclavicle -4.96962e-015 2.06736e-014
lhumerus 34.3211 37.7639 -4.6265
lradius 28.9483
lwrist 36.7882
lhand -23.7434 -21.7037
lfingers 7.12502
lthumb 2.7252 8.25866
rfemur -7.88352 12.3664 -11.246
rtibia 16.8613
rfoot -20.9269 -24.6332
rtoes 43.5373
lfemur -10.0568 4.72551 -35.3694
ltibia -2.06736e-014
lfoot -9.65307 6.74147
ltoes 20.9398
80
root -1.00107 17.4775 5.14484 -30.4236 -83.7266 49.3405
lowerback -10.8505 1.69879 6.30954
upperback -13.087 1.08556 -0.725241
thorax -7.75225 -0.399565 -4.20411
lowerneck -6.30433 17.8329 11.2766
upperneck 12.5089 22.4074 3.00157
head 5.70026 11.6208 0.97468
rclavicle 1.70955e-014 3.97569e-015
rhumerus 7.56272 -26.6896 27.3215
rradius 114.899
rwrist -61.7704
rhand -7.63036 -50.8362
rfingers 7.12502
rthumb 18.2645 -79.9987
lclavicle 1.70955e-014 3.97569e-015
lhumerus 34.5559 38.0174 -4.35248
lradius 28.9437
lwrist 36.6345
lhand -23.4037 -21.8926
lfingers 7.12502
lthumb 3.05328 8.06525
rfemur -7.9224 12.4824 -11.404
rtibia 16.853
rfoot -21.6529 -24.1757
rtoes 44.0848
lfemur -10.158 4.66141 -35.4784
ltibia 1.27222e-014
lfoot -9.56569 6.72903
ltoes 20.4326
81
root -0.994366 17.4749 5.1441 -32.4854 -83.5477 51.4596
lowerback -10.8442 1.65729 5.98541
upperback -13.0987 1.04447 -0.788797
thorax -7.77089 -0.396648 -4.09249
lowerneck -6.25385 17.8246 11.2577
upperneck 12.5066 22.4096 2.97206
head 5.69288 11.6196 0.963622
rclavicle -1.17283e-014 -3.18055e-015
rhumerus 7.59425 -26.674 27.2927
rradius 114.828
rwrist -61.7935
rhand -7.62513 -51.6421
rfingers 7.12502
rthumb 18.2695 -80.8041
lclavicle -1.17283e-014 -3.18055e-015
lhumerus 34.4887 37.8797 -4.50858
lradius 28.9352
lwrist 36.6136
lhand -23.6129 -21.815
lfingers 7.12502
lthumb 2.8512 8.14574
rfemur -7.94384 12.1348 -11.7408
rtibia 16.7716
rfoot -20.6625 -24.8318
rtoes 43.368
lfemur -10.2247 4.61847 -35.7846
ltibia 3.81667e-014
lfoot -9.571 6.63683
ltoes 20.8426
82
root -0.990135 17.4801 5.1387 -30.8937 -83.507 50.0034
lowerback -10.9741 1.59595 6.00509
upperback -13.1358 0.951733 -0.687393
thorax -7.75289 -0.442584 -3.99732
lowerneck -6.22029 17.8573 11.0116
upperneck 12.5531 22.4642 3.14014
head 5.65686 11.6491 1.03775
rclavicle 7.15625e-015 -1.59028e-014
rhumerus 7.72034 -26.6315 27.2317
rradius 114.635
rwrist -61.7954
rhand -7.82609 -52.2939
rfingers 7.12502
rthumb 18.0762 -81.474
lclavicle 7.15625e-015 -1.59028e-014
lhumerus 34.1014 37.5985 -4.93143
lradius 28.9832
lwrist 36.9414
lhand -23.7201 -21.8076
lfingers 7.12502
lthumb 2.7477 8.15443
rfemur -8.15301 11.8559 -11.5818
rtibia 16.9681
rfoot -19.6658 -25.4443
rtoes 41.981
lfemur -10.4009 4.47229 -35.6383
ltibia -1.11319e-014
lfoot -9.58161 6.54804
ltoes 21.8124
83
root -0.986065 17.5017 5.13104 -19.9547 -83.7415 39.4035
lowerback -11.36 1.4969 7.04931
upperback -13.2958 0.728615 -0.250744
thorax -7.76611 -0.638969 -4.11906
lowerneck -5.84736 17.9649 10.7116
upperneck 12.5185 22.6747 3.29112
head 5.54105 11.7519 1.08859
rclavicle -1.05356e-014 -1.27222e-014
rhumerus 8.08593 -26.5933 26.8768
rradius 114.511
rwrist -61.75
rhand -7.54119 -52.9533
rfingers 7.12502
rthumb 18.3503 -82.1077
lclavicle -1.05356e-014 -1.27222e-014
lhumerus 33.0004 36.8448 -6.05257
lradius 29.0892
lwrist 37.5756
lhand -23.9281 -22.1099
lfingers 7.12502
lthumb 2.54681 7.85465
rfemur -8.50623 11.9686 -10.2332
rtibia 17.1516
rfoot -20.2144 -25.4988
rtoes 41.3676
lfemur -10.8941 4.11012 -34.3993
ltibia -1.74931e-014
lfoot -9.40134 6.61003
ltoes 21.6986
84
root -0.981968 17.4764 5.13964 -32.2778 -83.425 51.3682
lowerback -10.9178 1.47942 5.86146
upperback -13.1981 0.806475 -0.597686
thorax -7.87143 -0.506379 -3.82706
lowerneck -5.69004 17.9537 10.864
upperneck 12.4583 22.6895 3.1042
head 5.5366 11.7529 1.00598
rclavicle -2.78299e-015 1.98785e-014
rhumerus 7.99116 -26.5025 26.7436
rradius 114.454
rwrist -61.574
rhand -6.38164 -53.8197
rfingers 7.12502
rthumb 19.4654 -82.8654
lclavicle -2.78299e-015 1.98785e-014
lhumerus 32.5505 36.3333 -6.56434
lradius 29.0899
lwrist 37.6617
lhand -24.2402 -21.8008
lfingers 7.12502
lthumb 2.24541 8.16708
rfemur -8.37735 11.572 -11.7862
rtibia 17.3052
rfoot -16.9994 -26.8281
rtoes 39.0225
lfemur -10.4128 4.47794 -35.8664
ltibia 5.40694e-014
lfoot -9.51735 6.70435
ltoes 21.3592
85
root -0.978213 17.4684 5.14472 -35.1971 -83.3438 54.1168
lowerback -10.7157 1.46253 5.60803
upperback -13.1248 0.816773 -0.67138
thorax -7.89603 -0.47684 -3.76577
lowerneck -5.73726 17.989 10.8617
upperneck 12.5258 22.7329 3.0922
head 5.56819 11.7741 1.01617
rclavicle 2.24627e-014 1.74931e-014
rhumerus 8.13795 -26.5135 26.6587
rradius 114.31
rwrist -61.393
rhand -5.4125 -54.1494
rfingers 7.12502
rthumb 20.397 -83.0981
lclavicle 2.24627e-014 1.74931e-014
lhumerus 32.4832 36.4491 -6.45894
lradius 29.1219
lwrist 37.4596
lhand -24.1307 -22.5273
lfingers 7.12502
lthumb 2.35117 7.43945
rfemur -8.28952 11.6741 -12.1521
rtibia 17.3552
rfoot -17.5195 -26.3545
rtoes 40.945
lfemur -10.212 4.62008 -36.2201
ltibia -2.06736e-014
lfoot -9.56396 6.72157
ltoes 21.4316
86
root -0.972954 17.4661 5.1497 -35.2168 -83.3561 54.1037
lowerback -10.6775 1.38201 5.66527
upperback -13.1063 0.712841 -0.607658
thorax -7.90888 -0.529832 -3.73405
lowerneck -5.67252 18.0762 10.6911
upperneck 12.5873 22.8575 3.24008
head 5.54434 11.8392 1.08149
rclavicle -3.18055e-015 7.95139e-016
rhumerus 8.66945 -26.6273 26.237
rradius 114.341
rwrist -61.4039
rhand -5.10212 -54.4063
rfingers 7.12502
rthumb 20.6953 -83.3229
lclavicle -3.18055e-015 7.95139e-016
lhumerus 32.1702 36.5709 -6.66143
lradius 29.2917
lwrist 37.7974
lhand -23.8601 -24.2772
lfingers 7.12502
lthumb 2.6125 5.68657
rfemur -8.32215 11.7121 -12.1679
rtibia 17.4523
rfoot -18.1348 -25.8887
rtoes 41.8507
lfemur -10.1794 4.62891 -36.2473
ltibia -5.08889e-014
lfoot -9.54251 6.80993
ltoes 21.0145
